<svg width="24" height="24" viewBox="0 0 24 24" fill="none" xmlns="http://www.w3.org/2000/svg">
<g clip-path="url(#clip0_38_2)">
<path opacity="0.1" d="M12 0C5.37259 0 0 5.37259 0 12V21.3457C0 23.6544 2.73451 24.8723 4.45057 23.3279L5.31576 22.5492C6.13073 21.8157 7.31157 21.6557 8.29224 22.1461L10.8075 23.4037C11.5581 23.7791 12.4419 23.7791 13.1925 23.4037L15.7077 22.1461C16.6884 21.6557 17.8693 21.8157 18.6843 22.5492L19.5495 23.3279C21.2655 24.8723 24 23.6544 24 21.3457V12C24 5.37259 18.6275 0 12 0Z" fill="#A88BFA"/>
<path d="M20.2184 22.5846L19.5495 23.3279L20.2184 22.5846L19.3532 21.8059C19.3532 21.8059 19.3532 21.8059 19.3532 21.8059C18.2327 20.7974 16.609 20.5774 15.2605 21.2517C15.2605 21.2517 15.2605 21.2517 15.2605 21.2517L12.7453 22.5093C12.2762 22.7439 11.7238 22.7439 11.2547 22.5093L10.8075 23.4037L11.2547 22.5093L8.7395 21.2517C8.73948 21.2517 8.73947 21.2517 8.73945 21.2517C7.39094 20.5774 5.7673 20.7975 4.6468 21.8059L3.78162 22.5846C3.78162 22.5846 3.78161 22.5846 3.78161 22.5846C2.70906 23.5498 1 22.7886 1 21.3457V12C1 5.92487 5.92487 1 12 1C18.0752 1 23 5.92487 23 12V21.3457C23 22.7886 21.2909 23.5498 20.2184 22.5846Z" stroke="#A88BFA" stroke-width="2"/>
<circle cx="17" cy="10" r="2.25" stroke="#A88BFA" stroke-width="1.5"/>
<circle cx="9" cy="10" r="2.25" stroke="#A88BFA" stroke-width="1.5"/>
</g>
<defs>
<clipPath id="clip0_38_2">
<rect width="24" height="24" fill="white"/>
</clipPath>
</defs>
</svg>
